<?xml version="1.0" encoding="utf-8"?>
<!-- Generator: Adobe Illustrator 19.0.0, SVG Export Plug-In . SVG Version: 6.00 Build 0)  -->
<svg version="1.1" id="Layer_1" xmlns="http://www.w3.org/2000/svg" xmlns:xlink="http://www.w3.org/1999/xlink" x="0px" y="0px"
	 viewBox="-393 31 500 500" style="enable-background:new -393 31 500 500;" xml:space="preserve">
<style type="text/css">
	.st0{fill:#006533;}
	.st1{fill:#82B816;}
	.st2{fill:#006532;}
</style>
<g id="XMLID_19_">
	<path id="XMLID_21_" class="st0" d="M-175.6,162.6h103.3l52.1,90.2h59.5C25.8,164.8-50.3,97.5-142,97.5c-23.2,0-45.4,4.3-65.8,12.2
		L-175.6,162.6"/>
	<path id="XMLID_25_" class="st1" d="M-17.5,307.2l-54.9,95h-138.3l-69.2-119.8l55.3-95.7l-30.5-50.1
		c-42.9,33.6-70.4,85.8-70.4,144.4c0,101.3,82.1,183.4,183.4,183.4c92.4,0,168.8-68.3,181.6-157.2H-17.5"/>
	<path id="XMLID_26_" class="st2" d="M-77,280.5c0,36.2-29.3,65.5-65.5,65.5s-65.5-29.3-65.5-65.5s29.3-65.5,65.5-65.5
		C-106.4,215-77,244.3-77,280.5"/>
</g>
</svg>
